<svg t="1707147081702" class="icon" viewBox="0 0 1024 1024" version="1.1" xmlns="http://www.w3.org/2000/svg" p-id="4501" data-darkreader-inline-fill="" width="200" height="200"><path d="M501.76 100.864l103.936 157.696-195.584 5.12z m423.936 610.304l-209.408 5.12 103.936-164.352z m-814.592 5.12l89.6-143.872L296.96 716.288z m230.912 45.568l169.984 261.12 169.984-261.12h338.944l-169.984-252.416 169.984-245.248h-338.944L512 0.512 342.016 263.68H3.072l169.984 245.248L3.072 761.856zM916.48 309.76L820.736 450.56 727.04 309.76zM506.88 921.6l-98.304-159.744h196.608zM231.424 509.44l137.728-199.68h282.624l132.608 194.56-134.656 211.968H373.76z m-121.344-199.68H296.96L202.24 448.512z" fill="#515039" p-id="4502" data-darkreader-inline-fill="" style="--darkreader-inline-fill: #484735;"></path></svg>